:SAMPLES-PER-SECOND 30
:FULLY-SPECIFIED
:DEGREES
417
root  -3.74847 40.9291 0.66535 170.062 -87.5198 -168.424
RightUpLeg  5.10166 -0.123116 0.543667
RightLeg  -4.82779 -15.4584 1.31193
RightFoot  -1.03058 -0.163193 1.74313
RightToes  -3.10678e-008 1.75238e-005 3.56266e-009
Spine  -5.5761 1.42819 -1.00899
Spine1  7.47717 1.8411 -1.12899
HEad  -4.85516 -7.41814 9.396
LeftShoulder1  2.43599 -4.36922 -24.7576
LeftArm  -39.0874 21.1698 -55.4076
LeftForeArm  60.4748 -16.2447 -2.27916
LeftHand  -0.882487 -2.35013 13.4171
RightShoulder  0.292535 -1.78609 9.85922
RightArm  -62.4351 36.8644 0.730691
RightForeArm  127.978 69.2047 148.98
RightHand  0.0706557 10.9551 0.0773343
LeftUpLeg  3.61167 1.47185 2.65562
LeftLeg  -1.90009 16.4316 -0.731111
LeftFoot  -1.30759 0.193724 -2.05301
LeftToes  4.76857e-008 1.46588e-008 1.31384e-009
418
root  -3.71265 40.9288 0.680927 171.031 -86.9057 -169.512
RightUpLeg  5.06414 -0.0888017 0.5387
RightLeg  -4.71131 -14.799 1.22118
RightFoot  -0.927049 -0.174814 1.94345
RightToes  -3.10678e-008 1.75238e-005 3.56266e-009
Spine  -5.37573 1.75064 -0.743935
Spine1  7.5572 2.185 -1.29419
HEad  -4.88091 -7.35808 9.71175
LeftShoulder1  2.3962 -4.23898 -24.7627
LeftArm  -38.918 21.5532 -56.0132
LeftForeArm  60.6288 -16.6325 -2.32354
LeftHand  -0.985852 -3.07685 13.7224
RightShoulder  0.307127 -1.72938 10.1759
RightArm  -61.5815 37.3754 1.44582
RightForeArm  127.44 69.596 148.288
RightHand  -0.00991419 10.8111 -0.490452
LeftUpLeg  3.89108 1.44477 2.61375
LeftLeg  -2.15912 17.1355 -0.745067
LeftFoot  -1.23422 0.197706 -2.09325
LeftToes  4.76857e-008 1.46588e-008 1.31384e-009
419
root  -3.68523 40.9338 0.698158 170.899 -86.6947 -169.438
RightUpLeg  5.01233 -0.0884452 0.507177
RightLeg  -4.60275 -14.4542 1.19213
RightFoot  -0.83027 -0.173359 1.93626
RightToes  -3.10678e-008 1.75238e-005 3.56266e-009
Spine  -5.3521 1.93303 -0.478809
Spine1  7.82307 2.40012 -1.49174
HEad  -4.86911 -7.33974 9.86204
LeftShoulder1  2.38391 -4.18067 -24.8403
LeftArm  -39.4012 22.0537 -56.6197
LeftForeArm  62.3453 -16.8796 -2.11725
LeftHand  -0.985954 -3.2978 13.3872
RightShoulder  0.302496 -1.77816 10.4313
RightArm  -60.7202 37.7308 2.38363
RightForeArm  126.527 69.5272 148.286
RightHand  -0.0721333 10.6804 -0.936436
LeftUpLeg  4.01461 1.39427 2.58786
LeftLeg  -2.32171 17.4221 -0.746862
LeftFoot  -1.17688 0.199553 -2.10376
LeftToes  4.76857e-008 1.46588e-008 1.31384e-009
420
root  -3.66904 40.9436 0.716383 170.852 -86.7248 -169.29
RightUpLeg  4.80546 -0.0492198 0.492526
RightLeg  -4.47104 -14.42 1.11274
RightFoot  -0.712744 -0.162872 1.78464
RightToes  -3.10678e-008 1.75238e-005 3.56266e-009
Spine  -5.7306 1.86049 -0.362109
Spine1  8.28351 2.35826 -1.62449
HEad  -5.02321 -7.09599 9.53417
LeftShoulder1  2.40245 -4.22581 -24.901
LeftArm  -38.5911 23.335 -56.8019
LeftForeArm  63.0345 -17.4372 -2.27318
LeftHand  -0.989131 -3.59044 13.0124
RightShoulder  0.346799 -1.54281 10.569
RightArm  -58.3226 37.3257 4.37942
RightForeArm  125.64 68.9658 149.066
RightHand  -0.200626 10.5524 -1.87127
LeftUpLeg  4.07294 1.31745 2.53822
LeftLeg  -2.75033 17.5149 -0.845565
LeftFoot  -1.01021 0.208272 -2.2263
LeftToes  4.76857e-008 1.46588e-008 1.31384e-009
421
root  -3.66239 40.9551 0.725454 168.353 -87.1191 -166.6
RightUpLeg  4.67825 0.00241545 0.539527
RightLeg  -4.60994 -14.7784 1.19685
RightFoot  -0.493078 -0.174277 1.9687
RightToes  -3.10678e-008 1.75238e-005 3.56266e-009
Spine  -6.33372 1.4027 -0.43416
Spine1  8.76899 1.93405 -1.76263
HEad  -5.30889 -5.96732 9.19647
LeftShoulder1  2.34329 -4.10844 -24.5906
LeftArm  -38.1615 24.8451 -57.237
LeftForeArm  63.8502 -18.0985 -2.32066
LeftHand  -0.990871 -4.05625 12.4196
RightShoulder  0.428898 -1.16637 11.3275
RightArm  -52.796 35.7019 8.5555
RightForeArm  125.899 67.4104 151.336
RightHand  -0.299115 10.4874 -2.59298
LeftUpLeg  3.91503 1.27742 2.59879
LeftLeg  -2.99547 17.2004 -0.880031
LeftFoot  -0.877158 0.211638 -2.27035
LeftToes  4.76857e-008 1.46588e-008 1.31384e-009
422
root  -3.67051 40.9674 0.718027 167.953 -87.5339 -165.902
RightUpLeg  4.41198 -0.0507694 0.470372
RightLeg  -4.64618 -15.101 1.27946
RightFoot  -0.404112 -0.177815 2.02711
RightToes  -3.10678e-008 1.75238e-005 3.56266e-009
Spine  -7.07573 1.03424 -1.43418
Spine1  9.24184 1.43625 -0.856229
HEad  -5.3224 -5.51642 8.85673
LeftShoulder1  2.32994 -4.07975 -24.5259
LeftArm  -38.4919 26.1144 -57.7965
LeftForeArm  64.7703 -18.5448 -2.23624
LeftHand  -1.05348 -4.6247 12.4664
RightShoulder  0.559433 -0.662299 12.6839
RightArm  -44.0756 31.1079 14.1612
RightForeArm  127.973 64.7901 154.706
RightHand  -0.339751 10.6324 -2.86879
LeftUpLeg  3.74511 1.16629 2.54691
LeftLeg  -3.42503 16.9699 -0.996789
LeftFoot  -0.606084 0.205903 -2.17585
LeftToes  4.76857e-008 1.46588e-008 1.31384e-009
423
root  -3.66952 40.9738 0.715108 164.26 -88.0831 -162.02
RightUpLeg  4.32098 -0.100802 0.444711
RightLeg  -4.81248 -15.6034 1.42701
RightFoot  -0.285765 -0.172598 1.94639
RightToes  -3.10678e-008 1.75238e-005 3.56266e-009
Spine  -7.17822 0.672356 -2.70993
Spine1  9.17478 0.8375 0.499595
HEad  -5.29461 -5.25079 8.12547
LeftShoulder1  2.13815 -3.4423 -24.5849
LeftArm  -38.3945 27.127 -58.5421
LeftForeArm  63.4464 -19.2466 -2.28347
LeftHand  -1.06459 -4.65741 12.5562
RightShoulder  0.866677 0.484004 15.0237
RightArm  -33.3137 22.2504 19.7796
RightForeArm  129.626 61.3774 158.135
RightHand  -0.335039 10.5479 -2.85106
LeftUpLeg  3.67302 1.05157 2.51748
LeftLeg  -3.88765 16.5405 -1.0584
LeftFoot  -0.342075 0.204206 -2.14693
LeftToes  4.76857e-008 1.46588e-008 1.31384e-009
424
root  -3.66423 40.9691 0.708837 149.199 -88.7206 -147.075
RightUpLeg  4.67556 -0.113901 0.557917
RightLeg  -5.17692 -16.3824 1.66147
RightFoot  -0.240713 -0.162939 1.79383
RightToes  -3.10678e-008 1.75238e-005 3.56266e-009
Spine  -6.50727 0.802508 -3.50105
Spine1  8.57217 0.720657 1.67839
HEad  -5.84374 -5.74503 7.13749
LeftShoulder1  2.09359 -3.22204 -24.9427
LeftArm  -38.0195 27.8446 -58.914
LeftForeArm  62.4683 -20.3133 -2.25487
LeftHand  -1.06236 -4.78395 12.3809
RightShoulder  1.15641 1.28597 17.5876
RightArm  -22.2664 8.85208 24.7691
RightForeArm  132.014 58.5423 160.55
RightHand  -0.295144 9.89315 -2.64873
LeftUpLeg  3.5506 1.11327 2.63931
LeftLeg  -3.55933 15.7333 -0.878026
LeftFoot  -0.430318 0.208808 -2.21855
LeftToes  4.76857e-008 1.46588e-008 1.31384e-009
425
root  -3.66769 40.9564 0.691469 157.974 -89.4086 -155.927
RightUpLeg  4.81806 -0.183428 0.516483
RightLeg  -5.17296 -17.0671 1.71044
RightFoot  -0.472223 -0.158802 1.72436
RightToes  -3.10678e-008 1.75238e-005 3.56266e-009
Spine  -5.65556 1.2849 -3.95247
Spine1  7.7307 1.06811 2.38479
HEad  -6.69396 -7.03062 6.00146
LeftShoulder1  1.97802 -2.78161 -25.3042
LeftArm  -36.8686 28.1959 -58.9524
LeftForeArm  61.32 -21.6027 -2.24042
LeftHand  -1.08628 -4.96936 12.4374
RightShoulder  1.51514 2.07921 20.874
RightArm  -13.623 -8.33316 27.9903
RightForeArm  137.292 58.4284 161.027
RightHand  -0.0785252 10.4328 -0.98486
LeftUpLeg  3.46603 1.1404 2.62242
LeftLeg  -3.35872 14.9913 -0.843195
LeftFoot  -0.552616 0.223278 -2.44595
LeftToes  4.76857e-008 1.46588e-008 1.31384e-009
426
root  -3.70347 40.9485 0.664834 39.3956 -89.0259 -37.2592
RightUpLeg  5.00976 -0.309476 0.454368
RightLeg  -5.40697 -18.2657 1.89685
RightFoot  -0.666318 -0.156578 1.68233
RightToes  -3.10678e-008 1.75238e-005 3.56266e-009
Spine  -5.89678 1.24909 -5.49335
Spine1  8.28198 0.578996 4.72232
HEad  -8.24732 -7.57131 4.06061
LeftShoulder1  1.71016 -1.84759 -25.8021
LeftArm  -35.4466 28.4655 -59.6779
LeftForeArm  59.1204 -23.827 -2.34717
LeftHand  -1.07872 -5.0595 12.2553
RightShoulder  1.71838 2.14353 24.3835
RightArm  -9.33913 -22.5984 31.1039
RightForeArm  141.012 61.8737 158.755
RightHand  -0.0615103 9.96912 -0.87191
LeftUpLeg  3.26253 1.11252 2.59099
LeftLeg  -3.36329 13.6849 -0.875739
LeftFoot  -0.518374 0.219478 -2.39134
LeftToes  4.76857e-008 1.46588e-008 1.31384e-009
427
root  -3.71276 40.94 0.640918 7.14053 -87.4775 -4.78171
RightUpLeg  5.03129 -0.352456 0.506069
RightLeg  -5.6244 -19.8312 2.14506
RightFoot  -0.855533 -0.148333 1.54496
RightToes  -3.10678e-008 1.75238e-005 3.56266e-009
Spine  -6.51733 0.59259 -7.38272
Spine1  9.28751 -0.661151 7.50135
HEad  -9.64464 -6.30454 1.94783
LeftShoulder1  1.47827 -1.09113 -25.9986
LeftArm  -34.1457 29.7157 -60.8819
LeftForeArm  55.3415 -26.992 -2.97476
LeftHand  -1.10991 -4.64326 13.0888
RightShoulder  1.66381 1.65206 26.2475
RightArm  -8.99504 -32.6268 36.1196
RightForeArm  136.503 67.8941 151.646
RightHand  -0.095336 10.0212 -1.12323
LeftUpLeg  2.63861 1.05044 2.63926
LeftLeg  -2.99071 12.0173 -0.728212
LeftFoot  -0.617651 0.224813 -2.48071
LeftToes  4.76857e-008 1.46588e-008 1.31384e-009
428
root  -3.71346 40.9349 0.651393 2.34998 -86.3099 0.0745239
RightUpLeg  4.95388 -0.54346 0.298591
RightLeg  -5.37183 -20.8193 2.14329
RightFoot  -1.16819 -0.145346 1.48762
RightToes  -3.10678e-008 1.75238e-005 3.56266e-009
Spine  -6.00268 -0.266475 -8.6587
Spine1  8.51134 -1.8015 8.99392
HEad  -9.78827 -4.2809 0.676951
LeftShoulder1  1.2728 -0.523592 -25.4189
LeftArm  -35.2976 31.7443 -62.53
LeftForeArm  54.3804 -29.3366 -3.51901
LeftHand  -1.08394 -4.63099 12.8091
RightShoulder  1.30644 0.721976 24.9262
RightArm  -10.8608 -38.3533 44.2366
RightForeArm  117.988 75.7911 131.307
RightHand  -0.161983 10.0032 -1.62586
LeftUpLeg  2.43876 0.862316 2.41851
LeftLeg  -3.03961 10.9908 -0.710803
LeftFoot  -0.529075 0.218294 -2.38737
LeftToes  4.76857e-008 1.46588e-008 1.31384e-009
429
root  -3.70423 40.9406 0.675912 2.09708 -85.9506 0.194336
RightUpLeg  4.99715 -0.464831 0.337516
RightLeg  -5.13009 -21.2919 1.9535
RightFoot  -1.19824 -0.157084 1.65753
RightToes  -3.10678e-008 1.75238e-005 3.56266e-009
Spine  -5.82233 -0.81656 -8.97375
Spine1  8.50685 -2.45368 9.34951
HEad  -9.97746 -3.06236 0.79862
LeftShoulder1  1.12611 -0.079843 -25.2257
LeftArm  -35.172 32.7411 -62.9927
LeftForeArm  53.9614 -30.4899 -3.78523
LeftHand  -1.09606 -4.56212 13.0347
RightShoulder  1.26588 0.620551 24.6739
RightArm  -12.6055 -40.7763 48.7846
RightForeArm  82.5558 79.5298 91.5579
RightHand  -0.234529 9.68741 -2.201
LeftUpLeg  2.5745 0.973699 2.45691
LeftLeg  -3.1206 10.4639 -0.835784
LeftFoot  -0.491947 0.219001 -2.40788
LeftToes  4.76857e-008 1.46588e-008 1.31384e-009
430
root  -3.66172 40.9389 0.703234 2.23083 -85.73 -0.0621948
RightUpLeg  5.02697 -0.450417 0.344003
RightLeg  -5.01204 -21.5078 1.89623
RightFoot  -1.25237 -0.15345 1.58807
RightToes  -3.10678e-008 1.75238e-005 3.56266e-009
Spine  -5.52814 -1.0533 -8.76789
Spine1  8.32818 -2.67107 9.11066
HEad  -10.1239 -2.83174 0.988673
LeftShoulder1  1.12526 -0.073101 -25.2554
LeftArm  -35.3193 32.3658 -62.9917
LeftForeArm  53.8292 -29.565 -3.5933
LeftHand  -1.08094 -4.27791 13.2141
RightShoulder  1.3613 0.905905 24.8541
RightArm  -11.6746 -42.1695 49.7767
RightForeArm  51.8436 78.073 61.3277
RightHand  -0.452274 9.25711 -3.97132
LeftUpLeg  2.49507 1.04377 2.49163
LeftLeg  -2.85474 10.1279 -0.837605
LeftFoot  -0.630939 0.224973 -2.5115
LeftToes  4.76857e-008 1.46588e-008 1.31384e-009
